<?xml version="1.0" encoding="UTF-8" standalone="no"?>
<svg
   xmlns:dc="http://purl.org/dc/elements/1.1/"
   xmlns:cc="http://creativecommons.org/ns#"
   xmlns:rdf="http://www.w3.org/1999/02/22-rdf-syntax-ns#"
   xmlns:svg="http://www.w3.org/2000/svg"
   xmlns="http://www.w3.org/2000/svg"
   version="1.1"
   id="svg11380"
   viewBox="0 0 431.4034 80"
   height="22.577778mm"
   width="121.75163mm">
  <defs
     id="defs11382" />
  <metadata
     id="metadata11385">
    <rdf:RDF>
      <cc:Work
         rdf:about="">
        <dc:format>image/svg+xml</dc:format>
        <dc:type
           rdf:resource="http://purl.org/dc/dcmitype/StillImage" />
        <dc:title></dc:title>
      </cc:Work>
    </rdf:RDF>
  </metadata>
  <g
     transform="translate(-178.86185,-185.96711)"
     id="layer1">
    <g
       id="text4136-7-2-8-1-3-7-8"
       style="font-style:normal;font-weight:normal;font-size:14.16378403px;line-height:125%;font-family:sans-serif;letter-spacing:0px;word-spacing:0px;fill:#111111;fill-opacity:1;stroke:none;stroke-width:4.69999981;stroke-linecap:round;stroke-linejoin:round;stroke-miterlimit:4;stroke-dasharray:none;stroke-opacity:1"
       transform="matrix(1.4120521,0,0.09767802,0.70818916,-41.037497,-321.80608)">
      <path
         d="m 355.9197,801.72533 -3.56928,0 11.80947,-84.72312 3.56928,0 z m -14.98509,-36.48742 c -1.96405,0 -3.77701,1.09199 -5.43889,3.27596 -1.6189,2.10866 -2.83665,4.97042 -3.65326,8.58527 -0.20317,0.7531 -0.36858,1.5062 -0.49621,2.25929 l -0.2696,2.25928 c 2.38081,-1.65681 4.75902,-3.27596 7.13463,-4.85746 l 7.14244,-4.97042 c -0.31779,-1.95805 -0.86937,-3.53955 -1.65473,-4.7445 -0.74759,-1.20495 -1.66905,-1.80742 -2.76438,-1.80742 z m 8.39475,10.50566 -9.16249,6.326 c -3.01118,2.03335 -6.02497,4.10436 -9.04136,6.21303 0.29695,2.25928 0.92733,4.06671 1.89112,5.42228 1.00156,1.35557 2.21997,2.03335 3.65524,2.03335 1.01979,0 2.00897,-0.37655 2.96755,-1.12964 0.99635,-0.75309 1.9165,-1.76977 2.76047,-3.05003 0.24485,0.8284 0.4871,1.69446 0.72675,2.59817 l 0.73457,2.48522 c -1.22557,1.88273 -2.5358,3.35127 -3.93069,4.4056 -1.39488,1.05433 -2.80995,1.5815 -4.24522,1.5815 -1.54857,0 -2.92588,-0.56482 -4.13192,-1.69447 -1.20083,-1.20495 -2.16788,-2.78644 -2.90114,-4.74449 -0.72806,-2.03335 -1.20866,-4.36795 -1.4418,-7.00378 -0.19016,-2.71114 -0.0651,-5.61055 0.37508,-8.69824 0.46105,-3.38893 1.14416,-6.43896 2.04933,-9.1501 0.94815,-2.78645 2.0539,-5.12104 3.31724,-7.00378 1.26855,-1.95805 2.65432,-3.42658 4.15731,-4.4056 1.54597,-1.05433 3.13101,-1.5815 4.75512,-1.5815 2.34174,0 4.17229,1.65681 5.49165,4.97043 1.32457,3.2383 1.9823,7.38032 1.97319,12.42605 z m -47.75297,4.7445 c -0.30216,2.18397 -0.40505,4.21733 -0.30866,6.10006 0.13936,1.80743 0.46432,3.38893 0.97487,4.7445 0.51055,1.35557 1.17153,2.44755 1.98294,3.27596 0.85439,0.75309 1.82925,1.12964 2.92458,1.12964 1.09533,0 2.16005,-0.37655 3.19417,-1.12964 1.0771,-0.82841 2.05912,-1.92039 2.94606,-3.27596 0.88694,-1.35557 1.63843,-2.93707 2.25447,-4.7445 0.65902,-1.88273 1.13961,-3.91609 1.44176,-6.10006 0.29695,-2.10867 0.37834,-4.10437 0.24419,-5.9871 -0.0964,-1.88274 -0.39985,-3.50189 -0.9104,-4.85746 -0.51055,-1.35557 -1.19301,-2.40991 -2.0474,-3.163 -0.81141,-0.8284 -1.76478,-1.2426 -2.86011,-1.2426 -1.13311,0 -2.23821,0.4142 -3.3153,1.2426 -1.03412,0.75309 -1.99465,1.80743 -2.88159,3.163 -0.84917,1.35557 -1.60327,2.97472 -2.26229,4.85746 -0.62125,1.88273 -1.08034,3.87843 -1.37729,5.9871 z m 18.9677,-21.1243 2.88941,0 -6.17922,44.28195 -0.46104,3.38893 c -0.46105,3.38893 -1.18454,6.47661 -2.17046,9.26306 -0.94815,2.78645 -2.05911,5.19635 -3.33287,7.22971 -1.27376,2.03335 -2.66734,3.61485 -4.18075,4.74449 -1.47563,1.12965 -2.98774,1.69447 -4.53631,1.69447 -1.65667,-0.0753 -3.17725,-0.7531 -4.56172,-2.03336 -1.38447,-1.28026 -2.5026,-2.86176 -3.35439,-4.7445 0.52097,-0.97902 1.03933,-1.92039 1.55508,-2.8241 0.55353,-0.90371 1.09077,-1.84508 1.61174,-2.8241 0.61344,1.50619 1.39619,2.74879 2.34826,3.72781 0.98984,0.97903 2.08908,1.46854 3.29773,1.46854 1.05756,0 2.106,-0.4142 3.14533,-1.24261 1.0771,-0.8284 2.04544,-1.9957 2.90503,-3.50189 0.89215,-1.43088 1.67295,-3.163 2.34239,-5.19635 0.66423,-1.95805 1.17412,-4.14202 1.52967,-6.55192 l 1.11355,-7.90749 c 0.11721,-0.60248 0.25331,-1.20496 0.4083,-1.80743 l 0.46496,-1.80743 c -0.32169,0.82841 -0.77819,1.69447 -1.36948,2.59818 -0.5913,0.90371 -1.2933,1.76977 -2.106,2.59818 -0.76973,0.75309 -1.64235,1.35557 -2.61786,1.80742 -0.98072,0.52717 -2.01875,0.79075 -3.11408,0.79075 -1.58634,0 -2.98253,-0.56482 -4.18857,-1.69446 -1.20083,-1.20495 -2.16788,-2.78645 -2.90115,-4.7445 -0.72805,-2.03335 -1.20865,-4.36794 -1.44179,-7.00377 -0.19537,-2.63583 -0.0756,-5.45994 0.35945,-8.47232 0.45584,-3.31361 1.15523,-6.32599 2.09817,-9.03713 0.94295,-2.71114 2.04869,-5.04573 3.31724,-7.00378 1.30632,-1.95805 2.71358,-3.46424 4.22178,-4.51857 1.55117,-1.12964 3.11993,-1.69446 4.70628,-1.69446 1.05756,0 1.99986,0.30124 2.82689,0.90372 0.86481,0.60247 1.587,1.35557 2.16658,2.25928 0.57958,0.90371 1.04324,1.84508 1.39099,2.8241 0.34775,0.97903 0.53334,1.84509 0.55679,2.59818 0.15889,-1.20495 0.35815,-2.44756 0.5978,-3.72782 0.27741,-1.28026 0.49816,-2.56052 0.66227,-3.84078 z m -25.9488,5.9871 c -1.17087,0 -2.31114,0.37655 -3.4208,1.12964 -1.07189,0.75309 -2.06758,1.76977 -2.98709,3.05003 -0.9195,1.28027 -1.70615,2.82411 -2.35996,4.63154 -0.6486,1.73211 -1.12137,3.6525 -1.41832,5.76117 l -2.98118,21.80208 -3.56928,0 5.87641,-42.36156 3.17269,0 -0.34188,2.48521 c -0.17973,1.50619 -0.35425,2.93707 -0.52356,4.29264 -0.12633,1.28026 -0.27937,2.67348 -0.4591,4.17967 0.69679,-1.88273 1.49127,-3.53954 2.38342,-4.97042 0.89736,-1.50619 1.79537,-2.74879 2.69404,-3.72782 0.94164,-1.05433 1.84617,-1.84508 2.71358,-2.37224 0.90517,-0.52717 1.69769,-0.79075 2.37756,-0.79075 z m -42.94535,15.1372 c 0.46625,-3.46423 1.17085,-6.55192 2.1138,-9.26306 0.94815,-2.78645 2.0539,-5.12105 3.31724,-7.00378 1.26334,-1.88274 2.6465,-3.31362 4.14949,-4.29264 1.54597,-1.05433 3.11212,-1.5815 4.69846,-1.5815 1.58635,0 2.97993,0.60248 4.18076,1.80743 1.24381,1.12964 2.22975,2.71114 2.9578,4.74449 0.73327,1.95805 1.21387,4.29264 1.4418,7.00378 0.22793,2.71114 0.12439,5.5729 -0.31061,8.58528 -0.46105,3.38893 -1.18193,6.43896 -2.16264,9.1501 -0.94295,2.71114 -2.06758,5.04573 -3.3739,7.00378 -1.26334,1.88273 -2.66799,3.35127 -4.21396,4.4056 -1.54597,1.05433 -3.11212,1.5815 -4.69846,1.5815 -1.54857,0 -2.92588,-0.56482 -4.13192,-1.69447 -1.20083,-1.20495 -2.16788,-2.78644 -2.90115,-4.74449 -0.72805,-2.03335 -1.20865,-4.36795 -1.44179,-7.00378 -0.19016,-2.71114 -0.0651,-5.61055 0.37508,-8.69824 z m 3.5048,0.11296 c -0.29695,2.10867 -0.37834,4.10437 -0.24419,5.9871 0.13936,1.80743 0.46432,3.38893 0.97487,4.7445 0.51055,1.35557 1.17153,2.44755 1.98294,3.27596 0.81661,0.75309 1.7537,1.12964 2.81127,1.12964 1.05756,0 2.1034,-0.37655 3.13752,-1.12964 1.03411,-0.75309 1.99464,-1.80743 2.88159,-3.163 0.88694,-1.35557 1.65731,-2.93706 2.31112,-4.74449 0.65902,-1.88274 1.13961,-3.9161 1.44177,-6.10007 0.29695,-2.10866 0.37834,-4.10436 0.24419,-5.9871 -0.13415,-1.88273 -0.45651,-3.50189 -0.96706,-4.85746 -0.50534,-1.43088 -1.1852,-2.52287 -2.03959,-3.27596 -0.81141,-0.8284 -1.74589,-1.2426 -2.80346,-1.2426 -1.09533,0 -2.16266,0.4142 -3.20199,1.2426 -0.99635,0.75309 -1.93799,1.80743 -2.82493,3.163 -0.84917,1.35557 -1.60327,2.97472 -2.26229,4.85746 -0.65902,1.88273 -1.13961,3.91609 -1.44176,6.10006 z m -20.27056,-36.93928 c 0.16931,-1.35557 0.56849,-2.48522 1.19756,-3.38893 0.63427,-0.97902 1.25357,-1.46853 1.85789,-1.46853 0.60433,0 1.08036,0.48951 1.42811,1.46853 0.35295,0.90371 0.44478,2.03336 0.27547,3.38893 -0.21229,1.43088 -0.63297,2.59818 -1.26204,3.50189 -0.58609,0.82841 -1.18129,1.24261 -1.78561,1.24261 -0.60432,0 -1.10445,-0.4142 -1.50039,-1.24261 -0.35295,-0.90371 -0.42328,-2.07101 -0.21099,-3.50189 z m -3.95987,58.06358 -3.56927,0 5.8764,-42.36156 3.56928,0 z m -7.07004,-36.37446 c -1.17087,0 -2.31114,0.37655 -3.4208,1.12964 -1.07189,0.75309 -2.06758,1.76977 -2.98708,3.05003 -0.91951,1.28027 -1.70616,2.82411 -2.35997,4.63154 -0.6486,1.73211 -1.12137,3.6525 -1.41832,5.76117 l -2.98118,21.80208 -3.56927,0 5.8764,-42.36156 3.17269,0 -0.34188,2.48521 c -0.17973,1.50619 -0.35425,2.93707 -0.52356,4.29264 -0.12633,1.28026 -0.27936,2.67348 -0.45909,4.17967 0.69679,-1.88273 1.49126,-3.53954 2.38341,-4.97042 0.89736,-1.50619 1.79537,-2.74879 2.69404,-3.72782 0.94165,-1.05433 1.84617,-1.84508 2.71358,-2.37224 0.90518,-0.52717 1.6977,-0.79075 2.37756,-0.79075 z M 184.58,780.48807 c -0.30215,2.18397 -0.40504,4.21733 -0.30866,6.10006 0.13937,1.80743 0.46432,3.38893 0.97487,4.7445 0.51055,1.35557 1.17153,2.44755 1.98294,3.27596 0.85439,0.75309 1.82925,1.12964 2.92458,1.12964 1.09533,0 2.16006,-0.37655 3.19418,-1.12964 1.07709,-0.82841 2.05911,-1.92039 2.94606,-3.27596 0.88694,-1.35557 1.63843,-2.93707 2.25447,-4.7445 0.65902,-1.88273 1.13961,-3.91609 1.44176,-6.10006 0.29695,-2.10867 0.37834,-4.10437 0.24419,-5.9871 -0.0964,-1.88274 -0.39985,-3.50189 -0.9104,-4.85746 -0.51055,-1.35557 -1.19302,-2.40991 -2.04741,-3.163 -0.81141,-0.8284 -1.76478,-1.2426 -2.86011,-1.2426 -1.1331,0 -2.2382,0.4142 -3.3153,1.2426 -1.03411,0.75309 -1.99464,1.80743 -2.88159,3.163 -0.84917,1.35557 -1.60327,2.97472 -2.26228,4.85746 -0.62125,1.88273 -1.08035,3.87843 -1.3773,5.9871 z m -3.57708,0.11296 c 0.45063,-3.23831 1.14741,-6.21303 2.09035,-8.92417 0.94295,-2.71114 2.06758,-5.04573 3.3739,-7.00377 1.31153,-2.03336 2.72139,-3.57721 4.22959,-4.63154 1.51341,-1.12964 3.06328,-1.69446 4.64962,-1.69446 1.05756,0 1.99986,0.30124 2.8269,0.90372 0.86481,0.60247 1.587,1.35557 2.16657,2.25928 0.57958,0.90371 1.04324,1.84508 1.39099,2.8241 0.34775,0.97903 0.53334,1.84509 0.55679,2.59818 0.15889,-1.20495 0.35816,-2.44756 0.5978,-3.72782 0.27741,-1.28026 0.49817,-2.56052 0.66227,-3.84078 l 2.88941,0 -5.8764,42.36156 -3.11604,0 0.58804,-4.4056 0.20708,-1.35557 c 0.069,-0.45185 0.14066,-0.94136 0.21489,-1.46853 -0.24095,0.75309 -0.64079,1.61915 -1.19952,2.59817 -0.55353,0.90371 -1.25553,1.76977 -2.106,2.59818 -0.81271,0.8284 -1.7283,1.50618 -2.74679,2.03335 -1.0237,0.60248 -2.1021,0.90372 -3.2352,0.90372 -1.58635,0 -2.98254,-0.56482 -4.18858,-1.69447 -1.20083,-1.20495 -2.16788,-2.78644 -2.90114,-4.74449 -0.72806,-2.03335 -1.20866,-4.36795 -1.4418,-7.00378 -0.19016,-2.71114 -0.0677,-5.5729 0.36727,-8.58528 z m -8.28598,-0.11296 c 0.29695,-2.10867 0.37574,-4.06671 0.23638,-5.87414 -0.0964,-1.88273 -0.39985,-3.50189 -0.9104,-4.85746 -0.51055,-1.35557 -1.19302,-2.4099 -2.04741,-3.16299 -0.81141,-0.82841 -1.76478,-1.24261 -2.86011,-1.24261 -1.09533,0 -2.18155,0.4142 -3.25864,1.24261 -1.03412,0.75309 -1.99465,1.80742 -2.88159,3.16299 -0.84917,1.35557 -1.60327,2.97473 -2.26229,4.85746 -0.65381,1.80743 -1.12918,3.76547 -1.42613,5.87414 -0.30216,2.18397 -0.38616,4.21733 -0.25201,6.10006 0.13937,1.80743 0.44283,3.42658 0.9104,4.85746 0.51055,1.35557 1.17153,2.44756 1.98294,3.27596 0.85439,0.7531 1.82925,1.12965 2.92458,1.12965 1.1331,0 2.21671,-0.37655 3.25083,-1.12965 1.07709,-0.8284 2.04023,-1.92039 2.8894,-3.27596 0.89215,-1.43088 1.64625,-3.05003 2.26229,-4.85746 0.65902,-1.88273 1.13961,-3.91609 1.44176,-6.10006 z m 3.56928,0 c -0.45584,3.31361 -1.15523,6.32599 -2.09818,9.03713 -0.94294,2.71114 -2.06757,5.04573 -3.37389,7.00378 -1.30632,1.95805 -2.73507,3.50189 -4.28625,4.63153 -1.50819,1.05433 -3.05546,1.5815 -4.64181,1.5815 -1.1331,0 -2.13205,-0.30124 -2.99686,-0.90371 -0.82703,-0.60248 -1.53294,-1.31792 -2.11773,-2.14632 -0.58479,-0.82841 -1.03477,-1.69447 -1.34996,-2.59818 -0.27742,-0.90371 -0.42785,-1.73212 -0.4513,-2.48521 -0.0417,0.60247 -0.0645,1.20495 -0.0684,1.80743 0.001,0.52717 -0.0189,1.09199 -0.0606,1.69446 l -4.41317,31.8559 -3.56927,0 9.86955,-70.60261 2.94607,0 c -0.1641,1.28026 -0.30932,2.56052 -0.43565,3.84078 -0.12633,1.28026 -0.27155,2.56052 -0.43565,3.84078 0.24095,-0.75309 0.65967,-1.61915 1.25618,-2.59817 0.5965,-0.97903 1.30371,-1.9204 2.12163,-2.82411 0.85569,-0.90371 1.77649,-1.65681 2.76242,-2.25928 1.0237,-0.60247 2.06433,-0.90371 3.12189,-0.90371 1.58635,0 2.97993,0.60247 4.18076,1.80742 1.20604,1.12965 2.17309,2.71115 2.90115,4.7445 0.77103,1.95805 1.25163,4.29264 1.44179,7.00378 0.23314,2.63583 0.13221,5.45993 -0.30279,8.47231 z m -48.60214,0 c -0.30216,2.18397 -0.40505,4.21733 -0.30866,6.10006 0.13936,1.80743 0.46432,3.38893 0.97487,4.7445 0.51055,1.35557 1.17153,2.44755 1.98294,3.27596 0.85439,0.75309 1.82925,1.12964 2.92458,1.12964 1.09533,0 2.16006,-0.37655 3.19417,-1.12964 1.0771,-0.82841 2.05912,-1.92039 2.94606,-3.27596 0.88694,-1.35557 1.63843,-2.93707 2.25447,-4.7445 0.65902,-1.88273 1.13961,-3.91609 1.44176,-6.10006 0.29695,-2.10867 0.37834,-4.10437 0.24419,-5.9871 -0.0964,-1.88274 -0.39985,-3.50189 -0.9104,-4.85746 -0.51055,-1.35557 -1.19301,-2.40991 -2.0474,-3.163 -0.81141,-0.8284 -1.76478,-1.2426 -2.86011,-1.2426 -1.13311,0 -2.23821,0.4142 -3.3153,1.2426 -1.03412,0.75309 -1.99465,1.80743 -2.88159,3.163 -0.84917,1.35557 -1.60327,2.97472 -2.26229,4.85746 -0.62125,1.88273 -1.08034,3.87843 -1.37729,5.9871 z m -3.57709,0.11296 c 0.45063,-3.23831 1.14741,-6.21303 2.09036,-8.92417 0.94294,-2.71114 2.06757,-5.04573 3.37389,-7.00377 1.31153,-2.03336 2.7214,-3.57721 4.22959,-4.63154 1.51341,-1.12964 3.06328,-1.69446 4.64963,-1.69446 1.05756,0 1.99986,0.30124 2.82689,0.90372 0.86481,0.60247 1.587,1.35557 2.16658,2.25928 0.57958,0.90371 1.04324,1.84508 1.39099,2.8241 0.34775,0.97903 0.53334,1.84509 0.55679,2.59818 0.15889,-1.20495 0.35815,-2.44756 0.5978,-3.72782 0.27741,-1.28026 0.49817,-2.56052 0.66227,-3.84078 l 2.88941,0 -5.87641,42.36156 -3.11603,0 0.58803,-4.4056 0.20708,-1.35557 c 0.069,-0.45185 0.14066,-0.94136 0.2149,-1.46853 -0.24095,0.75309 -0.64079,1.61915 -1.19952,2.59817 -0.55353,0.90371 -1.25553,1.76977 -2.106,2.59818 -0.81271,0.8284 -1.72831,1.50618 -2.7468,2.03335 -1.02369,0.60248 -2.10209,0.90372 -3.2352,0.90372 -1.58634,0 -2.98253,-0.56482 -4.18858,-1.69447 -1.20083,-1.20495 -2.16787,-2.78644 -2.90114,-4.74449 -0.72805,-2.03335 -1.20865,-4.36795 -1.44179,-7.00378 -0.19016,-2.71114 -0.0677,-5.5729 0.36726,-8.58528 z m -24.953051,37.27818 0.970941,-6.66489 c 1.33237,-0.15062 2.61785,-0.71544 3.85645,-1.69446 1.23339,-0.90371 2.36323,-2.22163 3.38953,-3.95375 1.05886,-1.65681 1.9738,-3.69016 2.74483,-6.10006 0.80879,-2.4099 1.4333,-5.15869 1.87351,-8.24638 l 9.61558,-68.56926 3.51262,0 -9.63903,68.90815 c -0.59389,4.21733 -1.4372,7.94514 -2.52992,11.18345 -1.09272,3.23831 -2.37559,5.94945 -3.84862,8.13342 -1.43526,2.18397 -3.00662,3.87844 -4.71409,5.08339 -1.70747,1.20495 -3.4514,1.84508 -5.231801,1.92039 z m 15.552201,-6.66355 c -1.00627,2.31312 -2.12735,4.40565 -3.34891,6.22186 -0.0936,0.14197 -0.18987,0.27481 -0.28451,0.41369 l 33.17563,0 0.92791,-6.63555 z m 42.59647,0 -0.91823,6.63555 135.36234,0 c 0.053,-0.11353 0.10727,-0.22487 0.16278,-0.33371 0.56331,-1.05858 1.12634,-2.08264 1.68958,-3.06956 0.0453,-0.0798 0.0913,-0.1579 0.13793,-0.23442 0.45982,-0.75072 0.90649,-1.53096 1.33925,-2.34423 0.12409,-0.23045 0.25371,-0.44865 0.38825,-0.65363 z m 163.12833,0 c -0.41236,2.2935 -0.9321,4.51575 -1.55726,6.63555 l 84.13343,0 1.66397,0 0.45901,-6.63555 -1.66397,0 z m -210.56598,0.54055 c -0.0237,0.04 -0.0514,0.0679 -0.0752,0.1076 -0.0266,0.0421 -0.0479,0.0962 -0.0746,0.13796 z m 205.47756,5.01389 c -0.008,0.0243 -0.0188,0.0446 -0.0269,0.0689 -0.005,0.015 -0.008,0.0319 -0.0129,0.0469 z m -210.28082,0.63709 c -0.0204,0.0161 -0.0418,0.0226 -0.0622,0.0385 -0.0183,0.0141 -0.035,0.037 -0.0532,0.0497 z"
         style="font-style:italic;font-variant:normal;font-weight:600;font-stretch:normal;font-size:56.65513611px;font-family:'Josefin Sans';-inkscape-font-specification:'Josefin Sans Semi-Bold Italic';letter-spacing:-1.95971155px;fill:#ffffff;fill-opacity:1;stroke:none;stroke-width:4.69999981;stroke-linecap:round;stroke-linejoin:round;stroke-miterlimit:4;stroke-dasharray:none;stroke-opacity:1"
         id="path11268" />
    </g>
  </g>
</svg>
